<svg display="block" role="presentation" viewBox="0 0 32 32" xmlns="http://www.w3.org/2000/svg"><g d="M 5.249 32 C 8.147 32 10.499 29.611 10.499 26.666 L 10.499 21.333 L 5.249 21.333 C 2.352 21.333 0 23.722 0 26.666 C 0 29.611 2.352 32 5.249 32 Z M 0 16.003 C 0 13.059 2.352 10.67 5.249 10.67 L 10.499 10.67 L 10.499 21.337 L 5.249 21.337 C 2.352 21.337 0 18.947 0 16.003 Z M 0 5.334 C 0 2.389 2.352 0 5.249 0 L 10.499 0 L 10.499 10.667 L 5.249 10.667 C 2.352 10.667 0 8.278 0 5.334 Z M 10.501 0 L 15.751 0 C 18.648 0 21 2.389 21 5.334 C 21 8.278 18.648 10.667 15.751 10.667 L 10.501 10.667 Z M 21 16.003 C 21 18.947 18.648 21.337 15.751 21.337 C 12.853 21.337 10.501 18.947 10.501 16.003 C 10.501 13.059 12.853 10.67 15.751 10.67 C 18.648 10.67 21 13.059 21 16.003 Z" fill="transparent" height="32.00000035326457px" id="DMJ2J8JiS" transform="translate(6 0)" width="20.99999985719313px"><path d="M 5.249 10.667 C 8.147 10.667 10.499 8.278 10.499 5.334 L 10.499 0 L 5.249 0 C 2.352 0 0 2.389 0 5.334 C 0 8.278 2.352 10.667 5.249 10.667 Z" fill="rgb(10, 207, 131)" height="10.667377825188396px" id="wD3Mue5ma" transform="translate(0 21.333)" width="10.498949861770711px"/><path d="M 0 5.334 C 0 2.389 2.352 0 5.249 0 L 10.499 0 L 10.499 10.667 L 5.249 10.667 C 2.352 10.667 0 8.278 0 5.334 Z" fill="rgb(162, 89, 255)" height="10.667377825188396px" id="DXPlAeboQ" transform="translate(0 10.67)" width="10.498949861770711px"/><path d="M 0 5.334 C 0 2.389 2.352 0 5.249 0 L 10.499 0 L 10.499 10.667 L 5.249 10.667 C 2.352 10.667 0 8.278 0 5.334 Z" fill="rgb(242, 78, 30)" height="10.667377825188348px" id="RF_Pw626m" width="10.498949861770711px"/><path d="M 0 0 L 5.249 0 C 8.147 0 10.499 2.389 10.499 5.334 C 10.499 8.278 8.147 10.667 5.249 10.667 L 0 10.667 Z" fill="rgb(255, 114, 98)" height="10.667377825188348px" id="EmAwXbLPb" transform="translate(10.501 0)" width="10.498949861770768px"/><path d="M 10.499 5.334 C 10.499 8.278 8.147 10.667 5.249 10.667 C 2.352 10.667 0 8.278 0 5.334 C 0 2.389 2.352 0 5.249 0 C 8.147 0 10.499 2.389 10.499 5.334 Z" fill="rgb(26, 188, 254)" height="10.667377825188396px" id="iaFarhzNZ" transform="translate(10.501 10.67)" width="10.498949861770768px"/></g></svg>